# xmcd CD database file
#
# Track frame offsets:
#	183
#	27758
#	46063
#	65048
#	85118
#	104733
#	129113
#	151735
#
# Disc length: 2332 seconds
#
# Revision: 0
# Processed by: cddbd v1.5.2PL0 Copyright (c) Steve Scherf et al.
# Submitted via: CDex 2.07
#
DISCID=5a091a08
DTITLE=Lee Ritenour - On The Line
DYEAR=1985
DGENRE=Jazz
TTITLE0=The Rit Variations
TTITLE1=Starbright
TTITLE2=On The Line
TTITLE3=Tush
TTITLE4=California Roll
TTITLE5=Heavenly Bodies
TTITLE6=Pedestrian
TTITLE7=Dolphin Dreams
EXTD=YEAR: 1985
EXTT0=
EXTT1=
EXTT2=
EXTT3=
EXTT4=
EXTT5=
EXTT6=
EXTT7=
PLAYORDER=
